<svg width="137" height="24" viewBox="0 0 137 24" fill="none" xmlns="http://www.w3.org/2000/svg">
<path d="M5.0525 14.4739C3.4503 7.86525 8.45676 1.5 15.2569 1.5H125C130.799 1.5 135.5 6.20101 135.5 12C135.5 17.799 130.799 22.5 125 22.5H15.2569C10.4109 22.5 6.19429 19.1835 5.0525 14.4739Z" fill="#D2CD41" stroke="#E5E5E5" stroke-width="3"/>
<path d="M38.2002 15V7.86H43.5602V15H42.6702V8.65H39.1002V15H38.2002ZM48.1947 9.54C48.8547 9.54 49.3847 9.77 49.7847 10.23C50.1913 10.69 50.3947 11.3833 50.3947 12.31C50.3947 13.2233 50.1913 13.9167 49.7847 14.39C49.3847 14.8633 48.8513 15.1 48.1847 15.1C47.7713 15.1 47.428 15.0233 47.1547 14.87C46.888 14.71 46.678 14.5267 46.5247 14.32H46.4647C46.478 14.4333 46.4913 14.5767 46.5047 14.75C46.518 14.9233 46.5247 15.0733 46.5247 15.2V17.4H45.6447V9.64H46.3647L46.4847 10.37H46.5247C46.6847 10.1367 46.8947 9.94 47.1547 9.78C47.4147 9.62 47.7613 9.54 48.1947 9.54ZM48.0347 10.28C47.488 10.28 47.1013 10.4333 46.8747 10.74C46.6547 11.0467 46.538 11.5133 46.5247 12.14V12.31C46.5247 12.97 46.6313 13.48 46.8447 13.84C47.0647 14.1933 47.468 14.37 48.0547 14.37C48.3813 14.37 48.648 14.28 48.8547 14.1C49.068 13.92 49.2247 13.6767 49.3247 13.37C49.4313 13.0567 49.4847 12.7 49.4847 12.3C49.4847 11.6867 49.3647 11.1967 49.1247 10.83C48.8913 10.4633 48.528 10.28 48.0347 10.28ZM54.117 9.54C54.577 9.54 54.9704 9.64 55.297 9.84C55.6304 10.04 55.8837 10.3233 56.057 10.69C56.237 11.05 56.327 11.4733 56.327 11.96V12.49H52.657C52.6704 13.0967 52.8237 13.56 53.117 13.88C53.417 14.1933 53.8337 14.35 54.367 14.35C54.707 14.35 55.007 14.32 55.267 14.26C55.5337 14.1933 55.807 14.1 56.087 13.98V14.75C55.8137 14.87 55.5437 14.9567 55.277 15.01C55.0104 15.07 54.6937 15.1 54.327 15.1C53.8204 15.1 53.3704 14.9967 52.977 14.79C52.5904 14.5833 52.287 14.2767 52.067 13.87C51.8537 13.4567 51.747 12.9533 51.747 12.36C51.747 11.7733 51.8437 11.27 52.037 10.85C52.237 10.43 52.5137 10.1067 52.867 9.88C53.227 9.65333 53.6437 9.54 54.117 9.54ZM54.107 10.26C53.687 10.26 53.3537 10.3967 53.107 10.67C52.867 10.9367 52.7237 11.31 52.677 11.79H55.407C55.4004 11.3367 55.2937 10.97 55.087 10.69C54.8804 10.4033 54.5537 10.26 54.107 10.26ZM61.9215 9.64V14.26H62.7015V16.86H61.8515V15H58.1215V16.86H57.2815V14.26H57.7115C58.1715 13.6267 58.5149 12.9067 58.7415 12.1C58.9749 11.2867 59.0949 10.4667 59.1015 9.64H61.9215ZM59.8815 10.33C59.8549 10.7833 59.7849 11.2533 59.6715 11.74C59.5582 12.22 59.4115 12.68 59.2315 13.12C59.0582 13.56 58.8549 13.94 58.6215 14.26H61.0715V10.33H59.8815ZM68.0821 15H67.1921V10.37H65.6121C65.5254 11.4967 65.4054 12.4067 65.2521 13.1C65.0988 13.7867 64.8954 14.2867 64.6421 14.6C64.3888 14.9133 64.0688 15.07 63.6821 15.07C63.5954 15.07 63.5088 15.0633 63.4221 15.05C63.3421 15.0433 63.2754 15.0267 63.2221 15V14.34C63.2621 14.3533 63.3054 14.3633 63.3521 14.37C63.3988 14.3767 63.4454 14.38 63.4921 14.38C63.8521 14.38 64.1388 13.9967 64.3521 13.23C64.5721 12.4633 64.7388 11.2667 64.8521 9.64H68.0821V15ZM74.6933 12.31C74.6933 13.1967 74.4667 13.8833 74.0133 14.37C73.5667 14.8567 72.96 15.1 72.1933 15.1C71.72 15.1 71.2967 14.9933 70.9233 14.78C70.5567 14.56 70.2667 14.2433 70.0533 13.83C69.84 13.41 69.7333 12.9033 69.7333 12.31C69.7333 11.4233 69.9567 10.74 70.4033 10.26C70.85 9.78 71.4567 9.54 72.2233 9.54C72.71 9.54 73.1367 9.65 73.5033 9.87C73.8767 10.0833 74.1667 10.3967 74.3733 10.81C74.5867 11.2167 74.6933 11.7167 74.6933 12.31ZM70.6433 12.31C70.6433 12.9433 70.7667 13.4467 71.0133 13.82C71.2667 14.1867 71.6667 14.37 72.2133 14.37C72.7533 14.37 73.15 14.1867 73.4033 13.82C73.6567 13.4467 73.7833 12.9433 73.7833 12.31C73.7833 11.6767 73.6567 11.18 73.4033 10.82C73.15 10.46 72.75 10.28 72.2033 10.28C71.6567 10.28 71.26 10.46 71.0133 10.82C70.7667 11.18 70.6433 11.6767 70.6433 12.31ZM82.5727 9.64L80.3627 12.24L82.7627 15H81.7627L79.4427 12.28V15H78.6227V12.28L76.3027 15H75.3027L77.7027 12.24L75.4927 9.64H76.4527L78.6227 12.24V9.64H79.4427V12.24L81.6227 9.64H82.5727ZM84.7227 12.91C84.7227 12.99 84.7194 13.11 84.7127 13.27C84.7061 13.43 84.6961 13.59 84.6827 13.75C84.6761 13.91 84.6694 14.0367 84.6627 14.13L87.5327 9.64H88.6127V15H87.7927V11.84C87.7927 11.7333 87.7927 11.5933 87.7927 11.42C87.7994 11.2467 87.8061 11.0767 87.8127 10.91C87.8194 10.7367 87.8261 10.6067 87.8327 10.52L84.9827 15H83.8927V9.64H84.7227V12.91ZM94.2685 10.38H92.5185V15H91.6485V10.38H89.9185V9.64H94.2685V10.38ZM98.0444 11.84C99.4377 11.84 100.134 12.3467 100.134 13.36C100.134 13.86 99.9644 14.26 99.6244 14.56C99.2844 14.8533 98.7444 15 98.0044 15H95.5744V9.64H96.4544V11.84H98.0444ZM99.2544 13.41C99.2544 13.0833 99.1377 12.8633 98.9044 12.75C98.6777 12.63 98.3577 12.57 97.9444 12.57H96.4544V14.29H97.9644C98.3377 14.29 98.6444 14.2233 98.8844 14.09C99.131 13.9567 99.2544 13.73 99.2544 13.41Z" fill="#EDEDED"/>
</svg>
