<svg width="256" height="46" viewBox="0 0 256 46" fill="none" xmlns="http://www.w3.org/2000/svg">
<path d="M7.95681 22.7954C5.50779 12.434 13.3675 2.5 24.0144 2.5H237C246.113 2.5 253.5 9.8873 253.5 19V27C253.5 36.1127 246.113 43.5 237 43.5H25.9052C18.2546 43.5 11.6075 38.2408 9.8477 30.7954L7.95681 22.7954Z" fill="#D2CD41" stroke="#E5E5E5" stroke-width="5"/>
<path d="M76.599 23.408C76.599 25.184 76.295 26.736 75.687 28.064C75.095 29.376 74.215 30.4 73.047 31.136C71.879 31.872 70.431 32.24 68.703 32.24C66.927 32.24 65.447 31.872 64.263 31.136C63.095 30.4 62.223 29.368 61.647 28.04C61.071 26.712 60.783 25.16 60.783 23.384C60.783 21.624 61.071 20.088 61.647 18.776C62.223 17.464 63.095 16.44 64.263 15.704C65.447 14.968 66.935 14.6 68.727 14.6C70.439 14.6 71.879 14.968 73.047 15.704C74.215 16.424 75.095 17.448 75.687 18.776C76.295 20.088 76.599 21.632 76.599 23.408ZM63.063 23.408C63.063 25.568 63.519 27.272 64.431 28.52C65.343 29.752 66.767 30.368 68.703 30.368C70.655 30.368 72.079 29.752 72.975 28.52C73.871 27.272 74.319 25.568 74.319 23.408C74.319 21.248 73.871 19.56 72.975 18.344C72.079 17.112 70.663 16.496 68.727 16.496C66.791 16.496 65.359 17.112 64.431 18.344C63.519 19.56 63.063 21.248 63.063 23.408ZM89.589 20.912H85.389V32H83.301V20.912H79.149V19.136H89.589V20.912ZM100.331 19.136H102.635L97.139 25.328L103.091 32H100.643L94.835 25.472V32H92.723V19.136H94.835V25.376L100.331 19.136ZM115.818 32H113.682V20.888H109.89C109.682 23.592 109.394 25.776 109.026 27.44C108.658 29.088 108.17 30.288 107.562 31.04C106.954 31.792 106.186 32.168 105.258 32.168C105.05 32.168 104.842 32.152 104.634 32.12C104.442 32.104 104.282 32.064 104.154 32V30.416C104.25 30.448 104.354 30.472 104.466 30.488C104.578 30.504 104.69 30.512 104.802 30.512C105.666 30.512 106.354 29.592 106.866 27.752C107.394 25.912 107.794 23.04 108.066 19.136H115.818V32ZM137.205 25.544C137.205 27.672 136.693 29.32 135.669 30.488C134.645 31.656 133.261 32.24 131.517 32.24C129.885 32.24 128.565 31.728 127.557 30.704C126.565 29.68 126.005 28.2 125.877 26.264H122.613V32H120.501V19.136H122.613V24.488H125.901C126.077 22.68 126.661 21.296 127.653 20.336C128.645 19.376 129.949 18.896 131.565 18.896C132.669 18.896 133.645 19.16 134.493 19.688C135.341 20.2 136.005 20.952 136.485 21.944C136.965 22.92 137.205 24.12 137.205 25.544ZM128.037 25.544C128.037 27.16 128.317 28.392 128.877 29.24C129.437 30.072 130.325 30.488 131.541 30.488C132.773 30.488 133.661 30.072 134.205 29.24C134.749 28.392 135.021 27.16 135.021 25.544C135.021 23.928 134.741 22.712 134.181 21.896C133.637 21.08 132.757 20.672 131.541 20.672C130.325 20.672 129.437 21.08 128.877 21.896C128.317 22.712 128.037 23.928 128.037 25.544ZM142.777 23.816C142.777 25.288 143.601 26.024 145.249 26.024C146.049 26.024 146.777 25.904 147.433 25.664C148.089 25.408 148.761 25.072 149.449 24.656V19.136H151.561V32H149.449V26.264C148.729 26.728 148.017 27.096 147.313 27.368C146.625 27.624 145.793 27.752 144.817 27.752C143.505 27.752 142.481 27.408 141.745 26.72C141.025 26.032 140.665 25.112 140.665 23.96V19.136H142.777V23.816ZM158.24 26.984C158.24 27.176 158.232 27.464 158.216 27.848C158.2 28.232 158.176 28.616 158.144 29C158.128 29.384 158.112 29.688 158.096 29.912L164.984 19.136H167.576V32H165.608V24.416C165.608 24.16 165.608 23.824 165.608 23.408C165.624 22.992 165.64 22.584 165.656 22.184C165.672 21.768 165.688 21.456 165.704 21.248L158.864 32H156.248V19.136H158.24V26.984ZM181.15 20.912H176.95V32H174.862V20.912H170.71V19.136H181.15V20.912ZM190.212 24.416C193.556 24.416 195.228 25.632 195.228 28.064C195.228 29.264 194.82 30.224 194.004 30.944C193.188 31.648 191.892 32 190.116 32H184.284V19.136H186.396V24.416H190.212ZM193.116 28.184C193.116 27.4 192.836 26.872 192.276 26.6C191.732 26.312 190.964 26.168 189.972 26.168H186.396V30.296H190.02C190.916 30.296 191.652 30.136 192.228 29.816C192.82 29.496 193.116 28.952 193.116 28.184Z" fill="#EDEDED"/>
</svg>
